<svg id="Layer_1" data-name="Layer 1" xmlns="http://www.w3.org/2000/svg" xmlns:xlink="http://www.w3.org/1999/xlink" width="34.2222" height="34.2222" viewBox="0 0 34.2222 34.2222"><defs><style>.cls-1{fill:url(#linear-gradient);}.cls-2{fill:url(#linear-gradient-2);}</style><linearGradient id="linear-gradient" x1="13.8379" y1="17.1113" x2="20.3845" y2="17.1113" gradientUnits="userSpaceOnUse"><stop offset="0" stop-color="#e1aa06"/><stop offset="1" stop-color="#de9312"/></linearGradient><linearGradient id="linear-gradient-2" x1="0.1108" y1="17.1111" x2="34.1115" y2="17.1111" xlink:href="#linear-gradient"/></defs><path class="cls-1" d="M15.2531,12.8141v1.9314H13.8379v2.3617h1.4152v7.0181H18.16V17.1074H20.11s.1825-1.1324.2711-2.37H18.1708V13.1221a.6856.6856,0,0,1,.63-.5661h1.5836V10.0972H18.2312c-3.05,0-2.9781,2.3639-2.9781,2.7169Zm0,0"/><path class="cls-2" d="M17.1118,34.1111a17,17,0,1,1,17-17A17.02,17.02,0,0,1,17.1118,34.1111Zm0-32.5864A15.5864,15.5864,0,1,0,32.6979,17.1115,15.6052,15.6052,0,0,0,17.1118,1.5247Z"/></svg>