<svg id="Layer_1" data-name="Layer 1" xmlns="http://www.w3.org/2000/svg" xmlns:xlink="http://www.w3.org/1999/xlink" width="34.2222" height="34.2222" viewBox="0 0 34.2222 34.2222"><defs><style>.cls-1{fill:url(#linear-gradient);}.cls-2{fill:url(#linear-gradient-2);}.cls-3{fill:url(#linear-gradient-3);}.cls-4{fill:url(#linear-gradient-4);}</style><linearGradient id="linear-gradient" x1="0.1114" y1="17.1111" x2="34.1108" y2="17.1111" gradientUnits="userSpaceOnUse"><stop offset="0" stop-color="#e1aa06"/><stop offset="1" stop-color="#de9312"/></linearGradient><linearGradient id="linear-gradient-2" x1="10.5128" y1="17.1113" x2="23.7089" y2="17.1113" xlink:href="#linear-gradient"/><linearGradient id="linear-gradient-3" x1="13.7108" y1="17.1115" x2="20.5113" y2="17.1115" xlink:href="#linear-gradient"/><linearGradient id="linear-gradient-4" x1="19.7952" y1="13.5769" x2="21.5125" y2="13.5769" xlink:href="#linear-gradient"/></defs><path class="cls-1" d="M17.111,34.1111a17,17,0,1,1,17-17A17.0185,17.0185,0,0,1,17.111,34.1111Zm0-32.5864A15.5864,15.5864,0,1,0,32.6973,17.1115,15.6039,15.6039,0,0,0,17.111,1.5247Z"/><path class="cls-2" d="M20.0672,10.5132H14.1545a3.6459,3.6459,0,0,0-3.6417,3.6417v5.9127a3.6455,3.6455,0,0,0,3.6417,3.6417h5.9127a3.6456,3.6456,0,0,0,3.6417-3.6417V14.1549A3.6456,3.6456,0,0,0,20.0672,10.5132Zm2.471,9.5544a2.4735,2.4735,0,0,1-2.471,2.4708H14.1545a2.4735,2.4735,0,0,1-2.471-2.4708V14.1549a2.4738,2.4738,0,0,1,2.471-2.4709h5.9127a2.474,2.474,0,0,1,2.471,2.4709Z"/><path class="cls-3" d="M17.1108,13.7112a3.4,3.4,0,1,0,3.4,3.4A3.404,3.404,0,0,0,17.1108,13.7112Zm0,5.6294A2.2294,2.2294,0,1,1,19.34,17.1113,2.2318,2.2318,0,0,1,17.1108,19.3406Z"/><path class="cls-4" d="M20.6539,12.7182a.8578.8578,0,1,0,.6073.2512.8626.8626,0,0,0-.6073-.2512Zm0,0"/></svg>