<?xml version="1.0" encoding="utf-8"?>
<!-- Generator: Adobe Illustrator 26.0.1, SVG Export Plug-In . SVG Version: 6.00 Build 0)  -->
<svg version="1.1" id="Objects" xmlns="http://www.w3.org/2000/svg" xmlns:xlink="http://www.w3.org/1999/xlink" x="0px" y="0px"
	 viewBox="0 0 262.62 500" style="enable-background:new 0 0 262.62 500;" xml:space="preserve">
<style type="text/css">
	.st0{fill:url(#SVGID_1_);}
	.st1{fill:#161661;}
	.st2{clip-path:url(#SVGID_00000182502268477189655190000007110341234460148159_);}
	.st3{fill:#FFFFFF;}
	.st4{opacity:0.43;clip-path:url(#SVGID_00000182502268477189655190000007110341234460148159_);}
	.st5{fill:url(#SVGID_00000003815831043525398230000007319350501059470211_);}
	.st6{opacity:0.07;clip-path:url(#SVGID_00000182502268477189655190000007110341234460148159_);}
	.st7{fill:#B2EAF9;}
	.st8{opacity:0.54;clip-path:url(#SVGID_00000182502268477189655190000007110341234460148159_);}
	.st9{fill:url(#SVGID_00000102533602396581448880000009872954381661060015_);}
	.st10{opacity:0.1;clip-path:url(#SVGID_00000182502268477189655190000007110341234460148159_);}
	.st11{fill:none;}
	.st12{clip-path:url(#SVGID_00000052074432609027645860000017278497269316118186_);}
	.st13{fill:#E8E8EA;}
	.st14{opacity:0.36;}
	.st15{fill:#251A51;}
	.st16{fill:#353584;}
	.st17{opacity:0.59;}
	.st18{fill:url(#SVGID_00000017483389059954503660000013976562318460765370_);}
	.st19{fill:url(#SVGID_00000133506597445671986240000007260773756258758284_);}
	.st20{fill:url(#SVGID_00000061457793564129700480000013117396876714995342_);}
	.st21{fill:url(#SVGID_00000055672745750564764280000013074530232433634731_);}
	.st22{fill:url(#SVGID_00000120558573758221906890000016512983473416543124_);}
	.st23{fill:url(#SVGID_00000116231280477631516540000015777679386356264639_);}
	.st24{fill:#F0BFAC;}
	.st25{fill:url(#SVGID_00000142888420850894011510000009234321987211828671_);}
	.st26{fill:url(#SVGID_00000114791288583592618760000012500311449688758696_);}
	.st27{fill:url(#SVGID_00000069389835710728763490000017989420401712669318_);}
	.st28{fill:#EDC483;}
	.st29{opacity:0.48;}
	.st30{opacity:0.48;fill:#EDC483;}
	.st31{fill:#DB5E77;}
	.st32{fill:url(#SVGID_00000116936489272908523420000012717027291371276203_);}
	.st33{fill:#A1E0DC;}
	.st34{opacity:0.54;fill:url(#SVGID_00000119104144238682537850000000461130230429574793_);}
	.st35{opacity:0.54;fill:url(#SVGID_00000062873415399676925420000011917971600334741673_);}
	.st36{opacity:0.54;fill:url(#SVGID_00000070107042161144578810000014645671897848624319_);}
	.st37{fill:url(#SVGID_00000043434044139099499940000009455382525832476826_);}
	.st38{fill:#4A4182;}
	.st39{opacity:0.57;}
	.st40{font-family:'Montserrat-Light';}
	.st41{font-size:9.7596px;}
	.st42{opacity:0.21;fill:#FFFFFF;}
	.st43{opacity:0.07;}
	.st44{font-family:'Montserrat-Bold';}
	.st45{font-size:12.9055px;}
	.st46{opacity:0.49;fill:#161661;}
	.st47{font-size:6.3004px;}
	.st48{fill:#D8D6E5;}
	.st49{fill:none;stroke:#323274;stroke-miterlimit:10;}
	.st50{opacity:0.46;}
	.st51{opacity:0.33;}
	.st52{fill:url(#SVGID_00000150065174875229001110000008032389513589814443_);}
	.st53{opacity:0.54;}
	.st54{fill:url(#SVGID_00000133486722168597093910000004592569310541623952_);}
</style>
<g>
	<g>
		<linearGradient id="SVGID_1_" gradientUnits="userSpaceOnUse" x1="147.0936" y1="580.4048" x2="122.4601" y2="64.8605">
			<stop  offset="0" style="stop-color:#221968"/>
			<stop  offset="0.929" style="stop-color:#33288A"/>
		</linearGradient>
		<path class="st0" d="M239.57,500.1H23.05C10.32,500.1,0,489.78,0,477.05v-454C0,10.32,10.32,0,23.05,0h216.52
			c12.73,0,23.05,10.32,23.05,23.05v454C262.62,489.78,252.3,500.1,239.57,500.1z"/>
		<path class="st1" d="M218.58,15.02h-21.05v1.08c0,8.36-6.77,15.13-15.13,15.13H76.33c-8.36,0-15.13-6.77-15.13-15.13v-1.08H44.04
			c-16.93,0-30.65,13.72-30.65,30.65v408.76c0,16.93,13.72,30.65,30.65,30.65h174.53c16.93,0,30.65-13.72,30.65-30.65V45.67
			C249.23,28.75,235.5,15.02,218.58,15.02z"/>
	</g>
	<g>
		<path class="st1" d="M219.2,14.35h-21.05v1.08c0,8.36-6.77,15.13-15.13,15.13H76.96c-8.36,0-15.13-6.77-15.13-15.13v-1.08H44.67
			c-16.93,0-30.65,13.72-30.65,30.65v408.76c0,16.93,13.72,30.65,30.65,30.65H219.2c16.93,0,30.65-13.72,30.65-30.65V45
			C249.85,28.07,236.13,14.35,219.2,14.35z"/>
		<g>
			<defs>
				<path id="SVGID_00000138537239384434306250000017194270167632283320_" d="M219.08,14.35h-19.44v0.1
					c-0.75,8.36-7.55,15.13-15.94,14.42H77.21c-8.39,0.71-15.19-6.07-15.23-14.42v-0.1H44.16c-17,0-30.77,13.72-30.77,30.65v408.14
					c0,16.93,13.78,30.65,30.77,30.65h174.92c17,0,30.77-13.72,30.77-30.65V45C249.85,28.08,236.08,14.35,219.08,14.35z"/>
			</defs>
			<clipPath id="SVGID_00000110442949632767284570000016476704197551555996_">
				<use xlink:href="#SVGID_00000138537239384434306250000017194270167632283320_"  style="overflow:visible;"/>
			</clipPath>
			<g style="clip-path:url(#SVGID_00000110442949632767284570000016476704197551555996_);">
				<path class="st3" d="M13.39,297.75c17.9-18.79,51.17-19.91,70.31-2.37c10.87,9.96,18.39,25.32,32.78,28.58
					c13.57,3.08,26.42-6.18,38.7-12.71c16.88-8.98,38.67-12.96,54.53-2.31c10.32,6.93,16.47,18.95,27.07,25.45
					c13.27,8.13,32.34,4.93,42.21-7.07V4.67H13.39V297.75z"/>
			</g>
			<g style="opacity:0.43;clip-path:url(#SVGID_00000110442949632767284570000016476704197551555996_);">
				<g>
					
						<linearGradient id="SVGID_00000048499814845667050010000012233949993572448918_" gradientUnits="userSpaceOnUse" x1="79.0528" y1="36.4828" x2="102.7602" y2="36.4828">
						<stop  offset="0.0108" style="stop-color:#DD85C5"/>
						<stop  offset="1" style="stop-color:#6F75D5"/>
					</linearGradient>
					<path style="fill:url(#SVGID_00000048499814845667050010000012233949993572448918_);" d="M82.92,54.07
						c8-9.27,17.74-18.42,23.86-29.08c2.97-5.17-3.75-9.98-8.02-6.19c-9.17,8.14-16.13,19.61-23.57,29.31
						C71.81,52.51,79.28,58.28,82.92,54.07L82.92,54.07z"/>
				</g>
			</g>
			<g style="opacity:0.07;clip-path:url(#SVGID_00000110442949632767284570000016476704197551555996_);">
				<path class="st7" d="M12.17,437.55c14.71-11.91,36.34-14.54,53.48-6.49c10.24,4.81,18.53,12.85,27.42,19.86
					s19.18,13.29,30.49,13.46c11.04,0.17,21.21-5.43,31.19-10.14c10.56-4.98,21.68-9.14,33.3-10.34c11.62-1.2,23.84,0.76,33.58,7.2
					c5.59,3.7,10.24,8.76,16.13,11.94c5.89,3.19,13.92,4.01,18.77-0.6v21.96H17.11L12.17,437.55z"/>
			</g>
			<g style="opacity:0.54;clip-path:url(#SVGID_00000110442949632767284570000016476704197551555996_);">
				<g>
					
						<linearGradient id="SVGID_00000051355361904757065410000008903772460979669937_" gradientUnits="userSpaceOnUse" x1="56.761" y1="442.865" x2="76.8748" y2="442.865">
						<stop  offset="0" style="stop-color:#E58F7E"/>
						<stop  offset="0.1391" style="stop-color:#E4857E"/>
						<stop  offset="0.6977" style="stop-color:#E0637F"/>
						<stop  offset="1" style="stop-color:#DE567F"/>
					</linearGradient>
					<path style="fill:url(#SVGID_00000051355361904757065410000008903772460979669937_);" d="M58.76,457.24
						c6.74-8,13.52-15.97,20.11-24.1c2.49-3.07-1.89-7.48-4.38-4.38c-6.7,8.37-13.2,16.89-19.74,25.38
						C52.99,456.43,56.9,459.46,58.76,457.24L58.76,457.24z"/>
				</g>
			</g>
			<g style="opacity:0.1;clip-path:url(#SVGID_00000110442949632767284570000016476704197551555996_);">
				<path class="st1" d="M13.39,289.04c13.24-15.65,37.52-20.68,55.89-11.59c10.69,5.29,18.86,14.42,27.84,22.25
					c8.99,7.84,19.96,14.8,31.86,14.14c11.38-0.63,21.06-8,31.21-13.18c13.63-6.96,30.58-10.01,44.01-2.68
					c9.8,5.35,16.15,15.29,24.73,22.44c8.58,7.15,22.42,10.94,30.33,3.05v35.69H17.87L13.39,289.04z"/>
			</g>
		</g>
		<path class="st11" d="M218.27,15.33h-19.36v0.1c-0.75,8.36-7.52,15.13-15.88,14.42H76.96c-8.36,0.71-15.13-6.07-15.17-14.42v-0.1
			H44.04c-16.93,0-30.65,13.72-30.65,30.65v408.14c0,16.93,13.72,30.65,30.65,30.65h174.22c16.93,0,30.65-13.72,30.65-30.65V45.98
			C248.92,29.06,235.19,15.33,218.27,15.33z"/>
		<path class="st11" d="M218.27,15.33h-19.36v0.1c-0.75,8.36-7.52,15.13-15.88,14.42H76.96c-8.36,0.71-15.13-6.07-15.17-14.42v-0.1
			H44.04c-16.93,0-30.65,13.72-30.65,30.65v408.14c0,16.93,13.72,30.65,30.65,30.65h174.22c16.93,0,30.65-13.72,30.65-30.65V45.98
			C248.92,29.06,235.19,15.33,218.27,15.33z"/>
		<g>
			<defs>
				<path id="SVGID_00000023246241125570180150000003469490196443866003_" d="M277.95,5.65H13.39v293.08
					c17.83-18.79,50.97-19.91,70.03-2.37c10.82,9.96,18.32,25.32,32.65,28.58c13.52,3.08,26.31-6.18,38.55-12.71
					c16.81-8.98,38.51-12.96,54.32-2.31c10.28,6.93,16.4,18.95,26.97,25.45"/>
			</defs>
			<clipPath id="SVGID_00000086680559777588430360000007978114957854044292_">
				<use xlink:href="#SVGID_00000023246241125570180150000003469490196443866003_"  style="overflow:visible;"/>
			</clipPath>
			<g style="clip-path:url(#SVGID_00000086680559777588430360000007978114957854044292_);">
				<path class="st13" d="M95.27,113.09v68c0,1.51,1.22,2.74,2.74,2.74h90.58c1.51,0,2.74-1.22,2.74-2.74v-70.36
					c0-1.54-1.27-2.77-2.81-2.73l-90.58,2.36C96.45,110.4,95.27,111.61,95.27,113.09z"/>
				<g class="st14">
					<path class="st15" d="M125.88,167.75c0,0.2-2.14,0.36-4.79,0.36c-2.64,0-4.79-0.16-4.79-0.36c0-0.2,2.14-0.36,4.79-0.36
						C123.73,167.4,125.88,167.55,125.88,167.75z"/>
				</g>
				<g class="st14">
					<path class="st15" d="M114.85,167.75c0,0.2-2.14,0.36-4.79,0.36c-2.64,0-4.79-0.16-4.79-0.36c0-0.2,2.14-0.36,4.79-0.36
						C112.71,167.4,114.85,167.55,114.85,167.75z"/>
				</g>
				<g>
					<path class="st16" d="M183.23,124.99c-0.03,0.07-1.15-0.58-3.35-1.27c-2.18-0.68-5.54-1.33-9.61-0.71
						c-2.02,0.32-4.2,0.93-6.34,2.04c-2.15,1.08-4.2,2.67-6.23,4.48c-2.04,1.8-4.07,3.85-6.41,5.74c-2.34,1.86-5.03,3.62-8.18,4.43
						c-1.57,0.4-3.21,0.51-4.78,0.29c-1.57-0.21-3.06-0.73-4.43-1.37c-2.74-1.29-5.09-2.99-7.42-4.41
						c-2.31-1.45-4.63-2.59-6.98-3.13c-2.33-0.57-4.6-0.68-6.64-0.51c-4.1,0.36-7.2,1.81-9.16,2.98c-1.97,1.2-2.89,2.1-2.95,2.04
						c-0.02-0.02,0.21-0.24,0.67-0.65c0.45-0.42,1.16-0.98,2.13-1.62c1.94-1.26,5.07-2.82,9.26-3.25c2.08-0.21,4.41-0.12,6.82,0.44
						c2.42,0.52,4.85,1.7,7.18,3.14c2.36,1.42,4.7,3.09,7.37,4.34c2.64,1.27,5.74,1.84,8.74,1.02c3-0.76,5.62-2.46,7.92-4.28
						c2.3-1.85,4.34-3.89,6.41-5.69c2.07-1.81,4.17-3.43,6.4-4.52c2.21-1.11,4.46-1.71,6.53-2.01c4.17-0.57,7.59,0.18,9.77,0.95
						c1.1,0.38,1.92,0.77,2.46,1.06C182.97,124.81,183.24,124.97,183.23,124.99z"/>
				</g>
				<g class="st17">
					
						<linearGradient id="SVGID_00000003071025856027031050000014529296770012955323_" gradientUnits="userSpaceOnUse" x1="152.3836" y1="105.8116" x2="100.4776" y2="183.9949">
						<stop  offset="0.05" style="stop-color:#6BC1CD"/>
						<stop  offset="1" style="stop-color:#A8EBA4"/>
					</linearGradient>
					
						<rect x="116.66" y="140.97" style="fill:url(#SVGID_00000003071025856027031050000014529296770012955323_);" width="8.86" height="23.96"/>
					
						<linearGradient id="SVGID_00000078758766108797686570000009267614339307740800_" gradientUnits="userSpaceOnUse" x1="178.477" y1="123.1354" x2="126.5713" y2="201.3184">
						<stop  offset="0.05" style="stop-color:#6BC1CD"/>
						<stop  offset="1" style="stop-color:#A8EBA4"/>
					</linearGradient>
					
						<rect x="154.26" y="140.97" style="fill:url(#SVGID_00000078758766108797686570000009267614339307740800_);" width="8.86" height="23.96"/>
					
						<linearGradient id="SVGID_00000008119153731512678850000006702936100268942465_" gradientUnits="userSpaceOnUse" x1="183.933" y1="126.7576" x2="132.0272" y2="204.9407">
						<stop  offset="0.05" style="stop-color:#6BC1CD"/>
						<stop  offset="1" style="stop-color:#A8EBA4"/>
					</linearGradient>
					
						<rect x="166.79" y="126.89" style="fill:url(#SVGID_00000008119153731512678850000006702936100268942465_);" width="8.86" height="38.03"/>
					
						<linearGradient id="SVGID_00000157999508575123861860000003844064434701723566_" gradientUnits="userSpaceOnUse" x1="148.3285" y1="103.1198" x2="96.4229" y2="181.3026">
						<stop  offset="0.05" style="stop-color:#6BC1CD"/>
						<stop  offset="1" style="stop-color:#A8EBA4"/>
					</linearGradient>
					
						<rect x="105.2" y="157.38" style="fill:url(#SVGID_00000157999508575123861860000003844064434701723566_);" width="8.86" height="8.06"/>
					
						<linearGradient id="SVGID_00000007397975653819239570000017750380922423733694_" gradientUnits="userSpaceOnUse" x1="163.5745" y1="113.2412" x2="111.6684" y2="191.4246">
						<stop  offset="0.05" style="stop-color:#6BC1CD"/>
						<stop  offset="1" style="stop-color:#A8EBA4"/>
					</linearGradient>
					
						<rect x="129.19" y="151.79" style="fill:url(#SVGID_00000007397975653819239570000017750380922423733694_);" width="8.86" height="13.14"/>
					
						<linearGradient id="SVGID_00000161593633265374527500000003301628171914446737_" gradientUnits="userSpaceOnUse" x1="171.5772" y1="118.5546" x2="119.6715" y2="196.7377">
						<stop  offset="0.05" style="stop-color:#6BC1CD"/>
						<stop  offset="1" style="stop-color:#A8EBA4"/>
					</linearGradient>
					
						<rect x="141.72" y="148.77" style="fill:url(#SVGID_00000161593633265374527500000003301628171914446737_);" width="8.86" height="16.16"/>
				</g>
				<path class="st24" d="M65.18,151.94v23.93H76.9v-4.64c0,0,5.86,0.73,6.35-0.98c0.49-1.71,0-21.49,0-21.49L65.18,151.94z"/>
				
					<linearGradient id="SVGID_00000135686189864570411560000018202873638571624621_" gradientUnits="userSpaceOnUse" x1="61.97" y1="115.0455" x2="71.6523" y2="232.9926">
					<stop  offset="0.0108" style="stop-color:#DD85C5"/>
					<stop  offset="1" style="stop-color:#6F75D5"/>
				</linearGradient>
				<path style="fill:url(#SVGID_00000135686189864570411560000018202873638571624621_);" d="M52.72,177.34l-2.93,58.11l43.22-2.69
					c0,0-2.44-54.7-5.62-56.89C84.22,173.68,54.92,173.92,52.72,177.34z"/>
				
					<linearGradient id="SVGID_00000130640698821833972840000000318716209883352453_" gradientUnits="userSpaceOnUse" x1="105.2362" y1="111.4937" x2="114.9185" y2="229.441">
					<stop  offset="0.0108" style="stop-color:#DD85C5"/>
					<stop  offset="1" style="stop-color:#6F75D5"/>
				</linearGradient>
				<path style="fill:url(#SVGID_00000130640698821833972840000000318716209883352453_);" d="M85.2,175.87c0,0,23.2-2.93,24.42-4.15
					c1.22-1.22,15.63-22.95,15.63-22.95s9.28,2.2,8.79,5.62c0,0-15.87,27.84-17.58,28.08c-1.71,0.24-25.64,15.21-25.64,15.21
					L85.2,175.87z"/>
				
					<linearGradient id="SVGID_00000068636232306883509940000003222792222075001761_" gradientUnits="userSpaceOnUse" x1="37.4015" y1="119.2598" x2="46.8938" y2="234.8925">
					<stop  offset="0.0108" style="stop-color:#DD85C5"/>
					<stop  offset="1" style="stop-color:#6F75D5"/>
				</linearGradient>
				<path style="fill:url(#SVGID_00000068636232306883509940000003222792222075001761_);" d="M53.81,176.55
					c0,0-11.49,0.34-15.4,19.56c-3.91,19.22-7.81,26.3,0,28.98c7.81,2.69,14.65,2.69,14.65,2.69L53.81,176.55z"/>
				<path class="st15" d="M52.25,235.3l-22,132.5h14.65c0,0,26.86-123.31,27.84-117.45c0.98,5.86,0.49,117.69,1.47,117.45
					c0.98-0.24,15.14,0,15.14,0s2.39-134.95,2.43-134.95C91.83,232.84,52.25,235.3,52.25,235.3z"/>
				<path class="st15" d="M65.18,169.97c0,0,9.54,1.09,11.24-2.42l1.09-3.03c0,0-1.82,0-1.45-2.91c0.36-2.91,2.67-3.15,4.12-2.06
					l1.09-3.88c0,0,4.24-2.67,4.48-4.36c0.24-1.7,0.24-7.63-3.27-6.54c-3.51,1.09-4.36,1.45-5.94,1.57
					c-1.57,0.12-13.21,0.12-13.33,6.66c0,0-2.3-0.97-1.7,3.03S64.84,163.43,65.18,169.97z"/>
				<path class="st24" d="M126.53,149.12c0,0-0.14-4.45,0.46-5.31c0.6-0.86,9.25-7.45,9.84-6.59c0.6,0.86-3.25,3.06-2.79,3.99
					c0,0,1.19,0.2,0.79,1.4l-0.27,1c0,0,0.73-0.33,0.93,0.07c0.2,0.4-0.13,2.33-0.13,2.33s0.73-1.26,0.86-0.47
					c0.13,0.8,0.23,3.62-1.26,5.39c-1.5,1.77-1.5,1.77-1.5,1.77L126.53,149.12z"/>
				<g class="st14">
					<path class="st15" d="M177.39,167.75c0,0.2-2.42,0.36-5.41,0.36c-2.99,0-5.41-0.16-5.41-0.36c0-0.2,2.42-0.36,5.41-0.36
						C174.97,167.4,177.39,167.55,177.39,167.75z"/>
				</g>
				<g class="st14">
					<path class="st15" d="M164.23,167.75c0,0.2-2.42,0.36-5.41,0.36c-2.99,0-5.41-0.16-5.41-0.36c0-0.2,2.42-0.36,5.41-0.36
						C161.81,167.4,164.23,167.55,164.23,167.75z"/>
				</g>
				<g class="st14">
					<path class="st15" d="M150.58,167.75c0,0.2-2.14,0.36-4.79,0.36c-2.64,0-4.79-0.16-4.79-0.36c0-0.2,2.14-0.36,4.79-0.36
						C148.44,167.4,150.58,167.55,150.58,167.75z"/>
				</g>
				<g class="st14">
					<path class="st15" d="M137.64,167.75c0,0.2-2.14,0.36-4.79,0.36c-2.64,0-4.79-0.16-4.79-0.36c0-0.2,2.14-0.36,4.79-0.36
						C135.49,167.4,137.64,167.55,137.64,167.75z"/>
				</g>
				<polygon class="st13" points="43.86,118.26 45.43,134.9 69.1,132.27 71.4,139.75 73.62,131.14 85.2,130.12 82.25,107.96 				"/>
				<g>
					<polygon class="st28" points="109.63,94.03 108.3,118.26 136.9,118.26 138.05,124.17 139.61,118.26 161.6,118.26 163.12,95.7 
											"/>
					<path class="st3" d="M124.99,105.37c0,2.8-2.27,5.07-5.07,5.07c-2.8,0-5.07-2.27-5.07-5.07c0-2.8,2.27-5.07,5.07-5.07
						C122.72,100.3,124.99,102.57,124.99,105.37z"/>
					<g>
						<path class="st3" d="M129.19,101.81c8.76,0.57,17.56,0.37,26.31,1.15c0.63,0.06,0.64-0.97,0-0.99
							c-8.75-0.35-17.56-1.15-26.31-0.64C128.89,101.35,128.89,101.79,129.19,101.81L129.19,101.81z"/>
					</g>
					<g>
						<path class="st3" d="M129.19,105.48c8.76,0.57,17.56,0.37,26.31,1.15c0.63,0.06,0.64-0.97,0-0.99
							c-8.75-0.35-17.56-1.15-26.31-0.64C128.89,105.02,128.89,105.46,129.19,105.48L129.19,105.48z"/>
					</g>
					<g>
						<path class="st3" d="M129.19,109.62c8.76,0.57,17.56,0.37,26.31,1.15c0.63,0.06,0.64-0.97,0-0.99
							c-8.75-0.35-17.56-1.15-26.31-0.64C128.89,109.17,128.89,109.6,129.19,109.62L129.19,109.62z"/>
					</g>
					<g class="st29">
						<path class="st28" d="M122.98,110.2c1.04-0.47-0.43-2.29-1.31-3.02c-0.88-0.73-2.11-1-3.21-0.72
							c-1.1,0.28-2.05,1.11-2.48,2.17C115.99,108.63,118.13,112.41,122.98,110.2z"/>
					</g>
					<path class="st30" d="M121.76,103.85c0,1.01-0.82,1.83-1.83,1.83c-1.01,0-1.83-0.82-1.83-1.83s0.82-1.83,1.83-1.83
						C120.93,102.02,121.76,102.84,121.76,103.85z"/>
				</g>
				<g>
					<path class="st16" d="M51.18,123.57c9.27-1.32,18.49-2.95,27.62-5.06c0.45-0.1,0.26-0.79-0.19-0.69
						c-9.14,1.97-18.31,3.82-27.54,5.36C50.81,123.22,50.92,123.6,51.18,123.57L51.18,123.57z"/>
				</g>
				<g>
					<path class="st16" d="M51.18,126.76c9.27-1.32,18.49-2.95,27.62-5.06c0.45-0.1,0.26-0.79-0.19-0.69
						c-9.14,1.97-18.31,3.82-27.54,5.36C50.81,126.41,50.92,126.8,51.18,126.76L51.18,126.76z"/>
				</g>
				<path class="st31" d="M84.6,112.27c0,1.1-0.89,1.99-1.99,1.99c-1.1,0-1.99-0.89-1.99-1.99c0-1.1,0.89-1.99,1.99-1.99
					C83.71,110.28,84.6,111.17,84.6,112.27z"/>
				<path class="st13" d="M202.41,227.78H110.3c-1.1,0-2-0.9-2-2v-33.2c0-1.1,0.9-2,2-2h92.11c1.1,0,2,0.9,2,2v33.2
					C204.41,226.88,203.52,227.78,202.41,227.78z"/>
				<g>
					
						<linearGradient id="SVGID_00000035528370079577236940000009933760343131046539_" gradientUnits="userSpaceOnUse" x1="116.0825" y1="209.2023" x2="165.5836" y2="209.2023">
						<stop  offset="0.0108" style="stop-color:#DD85C5"/>
						<stop  offset="1" style="stop-color:#6F75D5"/>
					</linearGradient>
					<path style="fill:url(#SVGID_00000035528370079577236940000009933760343131046539_);" d="M116.32,210.87
						c5.96-4.99,13.3-6.56,20.39-2.77c3.56,1.91,6.47,4.7,10.59,5.33c7.12,1.08,13.37-3.73,18.61-7.81c0.49-0.38-0.2-1.07-0.69-0.69
						c-6.36,4.96-13.42,9.85-21.71,6.2c-3.86-1.7-6.89-4.69-11.08-5.66c-6.02-1.39-12.28,0.62-16.53,4.97
						C115.62,210.73,116.03,211.11,116.32,210.87L116.32,210.87z"/>
				</g>
				<g>
					<path class="st33" d="M167.82,203.55c0.48,0.42,0.85,1,0.63,1.67c-0.21,0.63-0.98,1.03-1.61,0.8c-0.59-0.21-0.97-0.94-0.8-1.54
						c0.21-0.75,0.93-0.81,1.58-0.91c0.4-0.06,0.3-0.61,0-0.72c-0.99-0.37-2.13,0.58-2.39,1.5c-0.29,1.02,0.36,2.21,1.38,2.52
						c0.99,0.3,2.17-0.23,2.56-1.21c0.38-0.96-0.1-2.19-1.09-2.54C167.83,203.04,167.63,203.39,167.82,203.55L167.82,203.55z"/>
				</g>
				<g>
					<path class="st33" d="M149.77,212.44c0.33,0.04,0.81,0.28,0.78,0.69c-0.02,0.32-0.4,0.53-0.69,0.47
						c-0.68-0.15-0.18-0.87,0.05-1.18c0.25-0.34-0.16-0.71-0.5-0.65c-1.66,0.34-0.82,3.14,0.89,2.72c0.72-0.18,1.26-0.84,1.11-1.6
						c-0.15-0.77-0.97-1.38-1.74-1.09C149.33,211.94,149.4,212.4,149.77,212.44L149.77,212.44z"/>
				</g>
				<g>
					<path class="st16" d="M116.65,218.2c3.45,0.04,6.9,0.1,10.35,0.06c0.44,0,0.44-0.68,0-0.68c-3.45-0.03-6.9,0.02-10.35,0.06
						C116.3,217.66,116.3,218.2,116.65,218.2L116.65,218.2z"/>
				</g>
				<g>
					<path class="st16" d="M114.93,221.38c18.13,0.4,36.32,0.43,54.45,0.27c0.67-0.01,0.67-1.03,0-1.04
						c-18.13-0.16-36.33-0.13-54.45,0.27C114.6,220.88,114.6,221.38,114.93,221.38L114.93,221.38z"/>
				</g>
				
					<linearGradient id="SVGID_00000107562010419929967910000013548434171228692907_" gradientUnits="userSpaceOnUse" x1="174.1485" y1="194.0816" x2="185.1885" y2="223.9398">
					<stop  offset="0" style="stop-color:#E58F7E"/>
					<stop  offset="0.1391" style="stop-color:#E4857E"/>
					<stop  offset="0.6977" style="stop-color:#E0637F"/>
					<stop  offset="1" style="stop-color:#DE567F"/>
				</linearGradient>
				
					<rect x="177.79" y="203.15" style="opacity:0.54;fill:url(#SVGID_00000107562010419929967910000013548434171228692907_);" width="5.31" height="15.95"/>
				
					<linearGradient id="SVGID_00000174597027357423857330000017534543804168200340_" gradientUnits="userSpaceOnUse" x1="179.1201" y1="192.2432" x2="190.1602" y2="222.1016">
					<stop  offset="0" style="stop-color:#E58F7E"/>
					<stop  offset="0.1391" style="stop-color:#E4857E"/>
					<stop  offset="0.6977" style="stop-color:#E0637F"/>
					<stop  offset="1" style="stop-color:#DE567F"/>
				</linearGradient>
				
					<rect x="184.51" y="208.89" style="opacity:0.54;fill:url(#SVGID_00000174597027357423857330000017534543804168200340_);" width="5.31" height="10.2"/>
				
					<linearGradient id="SVGID_00000135670299283709938980000003383515890834671234_" gradientUnits="userSpaceOnUse" x1="184.4084" y1="190.2879" x2="195.4485" y2="220.1463">
					<stop  offset="0" style="stop-color:#E58F7E"/>
					<stop  offset="0.1391" style="stop-color:#E4857E"/>
					<stop  offset="0.6977" style="stop-color:#E0637F"/>
					<stop  offset="1" style="stop-color:#DE567F"/>
				</linearGradient>
				
					<rect x="191.22" y="212.69" style="opacity:0.54;fill:url(#SVGID_00000135670299283709938980000003383515890834671234_);" width="5.31" height="6.41"/>
				<g>
					<path class="st13" d="M231.62,179.04h-33.09c-1.1,0-2-0.9-2-2v-48.14c0-1.1,0.9-2,2-2h33.09c1.1,0,2,0.9,2,2v48.14
						C233.62,178.14,232.72,179.04,231.62,179.04z"/>
					<g>
						<path class="st16" d="M217.5,137.19c-5-1.11-10.49,1.61-11.9,6.76c-1.35,4.95,1.92,10.73,6.88,12.07
							c4.86,1.32,10.41-1.67,12.01-6.44c1.78-5.29-1.61-10.98-6.72-12.67c-0.59-0.2-0.83,0.72-0.26,0.93
							c4.36,1.6,7.49,6.3,6.19,11.02c-1.24,4.48-6.49,7.49-10.99,6.29c-4.32-1.15-7.1-5.78-6.55-10.1
							c0.67-5.29,6.27-8.45,11.25-7.59C217.6,137.5,217.68,137.23,217.5,137.19L217.5,137.19z"/>
					</g>
					<g>
						
							<linearGradient id="SVGID_00000021823209139028663260000002512767115475933318_" gradientUnits="userSpaceOnUse" x1="212.584" y1="146.3513" x2="224.5528" y2="146.3513">
							<stop  offset="0" style="stop-color:#E58F7E"/>
							<stop  offset="0.1391" style="stop-color:#E4857E"/>
							<stop  offset="0.6977" style="stop-color:#E0637F"/>
							<stop  offset="1" style="stop-color:#DE567F"/>
						</linearGradient>
						<path style="fill:url(#SVGID_00000021823209139028663260000002512767115475933318_);" d="M212.52,155.87
							c5.11,1.57,10.99-1.36,12.53-6.64c1.56-5.37-1.92-11.18-7.15-12.78c-1.21-0.37-1.64,1.41-0.51,1.85
							c4.43,1.73,7.37,6.54,5.62,11.25c-1.56,4.19-6.15,6.22-10.4,5.73C212.26,155.26,212.22,155.78,212.52,155.87L212.52,155.87z"
							/>
					</g>
					<g>
						<path class="st16" d="M207.94,161.72c5.24,0.12,10.51,0.33,15.75,0.16c0.54-0.02,0.54-0.82,0-0.83
							c-5.24-0.17-10.51,0.05-15.75,0.16C207.61,161.22,207.61,161.72,207.94,161.72L207.94,161.72z"/>
					</g>
					<g>
						<path class="st16" d="M202.31,165.79c8.85,0.42,17.82,0.55,26.68,0.29c0.55-0.02,0.55-0.84,0-0.85
							c-8.86-0.27-17.83-0.13-26.68,0.29C202.13,165.51,202.13,165.78,202.31,165.79L202.31,165.79z"/>
					</g>
					<g>
						<path class="st16" d="M203.76,169.45c8.42,0.39,17.14,0.66,25.55,0.11c0.49-0.03,0.49-0.73,0-0.76
							c-8.41-0.55-17.13-0.28-25.55,0.11C203.41,168.93,203.41,169.44,203.76,169.45L203.76,169.45z"/>
					</g>
				</g>
				<g>
					<path class="st38" d="M80.21,246.18c0.05,0.2-3.9,1.31-8.6,3.16c-4.7,1.83-8.36,3.71-8.46,3.52c-0.04-0.08,0.81-0.66,2.28-1.46
						c1.46-0.8,3.55-1.8,5.92-2.73c2.37-0.93,4.58-1.61,6.2-2.02C79.17,246.25,80.19,246.09,80.21,246.18z"/>
				</g>
				<g>
					<path class="st38" d="M84.44,249.52c0.02,0,0.04,0.39,0.04,1.14c-0.01,0.81-0.02,1.9-0.04,3.27
						c-0.06,2.91-0.15,7.01-0.25,12.03c-0.21,10.22-0.5,24.22-0.82,39.69c-0.22,15.48-0.42,29.48-0.56,39.7
						c-0.07,5.03-0.13,9.12-0.17,12.03c-0.03,1.37-0.06,2.46-0.08,3.27c-0.03,0.75-0.05,1.14-0.08,1.14c-0.02,0-0.05-0.39-0.07-1.14
						c-0.01-0.81-0.03-1.9-0.06-3.27c-0.01-2.91-0.03-7.01-0.06-12.04c0-10.16,0.09-24.2,0.35-39.71c0.27-15.5,0.67-29.54,1.02-39.7
						c0.2-5.03,0.36-9.12,0.48-12.03c0.07-1.37,0.13-2.46,0.17-3.27C84.38,249.91,84.41,249.52,84.44,249.52z"/>
				</g>
				<g>
					<path class="st38" d="M37.37,361.22c-0.02-0.01,0.04-0.38,0.17-1.07c0.16-0.76,0.37-1.78,0.63-3.05
						c0.59-2.72,1.41-6.52,2.42-11.19c2.05-9.45,4.86-22.51,7.75-36.98c2.88-14.47,5.27-27.62,6.95-37.14
						c0.83-4.71,1.51-8.54,1.99-11.28c0.24-1.28,0.42-2.3,0.56-3.06c0.14-0.7,0.22-1.06,0.24-1.06c0.02,0-0.01,0.38-0.1,1.08
						c-0.11,0.77-0.25,1.8-0.43,3.08c-0.39,2.68-0.99,6.55-1.77,11.32c-1.56,9.55-3.87,22.71-6.75,37.2
						c-2.88,14.48-5.78,27.53-7.95,36.95c-1.1,4.65-2,8.44-2.64,11.15c-0.32,1.26-0.57,2.27-0.76,3.02
						C37.5,360.87,37.4,361.23,37.37,361.22z"/>
				</g>
				<g class="st14">
					<path class="st15" d="M49.97,234.34c-0.2,0-0.19-8.72,0.01-19.47c0.2-10.75,0.52-19.47,0.72-19.46c0.2,0,0.19,8.72-0.01,19.48
						C50.49,225.63,50.17,234.34,49.97,234.34z"/>
				</g>
				<g class="st14">
					<path class="st15" d="M50.34,201.94c-0.16,0.11-1.21-1.17-2.03-3.02c-0.83-1.85-1.08-3.48-0.9-3.52
						c0.2-0.05,0.74,1.45,1.55,3.23C49.75,200.42,50.5,201.83,50.34,201.94z"/>
				</g>
				<g class="st14">
					<path class="st15" d="M132.53,155.96c-0.05,0.18-2.35-0.41-4.76-2.02c-2.42-1.59-3.87-3.48-3.72-3.6
						c0.15-0.14,1.78,1.47,4.11,3C130.48,154.9,132.6,155.76,132.53,155.96z"/>
				</g>
				<g>
					<path class="st7" d="M60.46,195.69c-0.13,0.14-1.15-0.59-2.26-1.63c-1.11-1.05-1.9-2.01-1.77-2.15
						c0.14-0.14,1.15,0.59,2.26,1.63C59.81,194.58,60.6,195.55,60.46,195.69z"/>
				</g>
				<g>
					<path class="st7" d="M67.85,201.85c0.16,0.11-0.45,1.32-1.37,2.69c-0.92,1.38-1.8,2.41-1.96,2.3
						c-0.16-0.11,0.45-1.32,1.37-2.69C66.8,202.77,67.68,201.74,67.85,201.85z"/>
				</g>
				<g>
					<path class="st7" d="M58.56,210.66c-0.18,0.08-0.75-0.84-1.28-2.05c-0.52-1.21-0.8-2.26-0.62-2.34
						c0.18-0.08,0.75,0.84,1.28,2.05C58.47,209.53,58.75,210.58,58.56,210.66z"/>
				</g>
				<g>
					<path class="st7" d="M64.7,219c-0.2,0.01-0.41-0.7-0.65-1.55c-0.24-0.85-0.44-1.56-0.27-1.66c0.17-0.09,0.68,0.53,0.95,1.46
						C65,218.19,64.9,218.99,64.7,219z"/>
				</g>
				<g>
					<path class="st7" d="M57.25,223.09c-0.19,0.07-0.55-0.49-1.05-1.09c-0.49-0.6-0.98-1.06-0.88-1.23
						c0.09-0.17,0.83,0.07,1.42,0.78C57.34,222.26,57.43,223.03,57.25,223.09z"/>
				</g>
				<g>
					<path class="st7" d="M60.89,228.51c0.13,0.14-0.57,0.98-1.7,1.68c-1.12,0.71-2.18,0.98-2.25,0.8c-0.08-0.18,0.81-0.73,1.87-1.4
						C59.88,228.92,60.75,228.36,60.89,228.51z"/>
				</g>
				<g>
					<path class="st7" d="M63.96,226.17c-0.15,0.13-0.86-0.46-1.59-1.3c-0.73-0.85-1.2-1.64-1.05-1.77c0.15-0.13,0.86,0.46,1.59,1.3
						C63.64,225.25,64.11,226.04,63.96,226.17z"/>
				</g>
				<g>
					<path class="st7" d="M71.41,229.53c0.13,0.15-0.4,0.79-1.31,1.18c-0.91,0.4-1.73,0.35-1.76,0.16c-0.03-0.2,0.66-0.46,1.47-0.81
						C70.63,229.71,71.29,229.37,71.41,229.53z"/>
				</g>
				<g>
					<path class="st7" d="M54.31,228.34c-0.04,0.19-0.51,0.25-1.03,0.12c-0.52-0.12-0.91-0.38-0.87-0.57
						c0.04-0.19,0.51-0.25,1.03-0.12C53.96,227.9,54.35,228.15,54.31,228.34z"/>
				</g>
				<g>
					<path class="st7" d="M75.26,221.55c0.1,0.17-0.49,0.68-1.31,1.14c-0.82,0.46-1.57,0.69-1.66,0.52
						c-0.1-0.17,0.49-0.68,1.31-1.14C74.42,221.62,75.16,221.38,75.26,221.55z"/>
				</g>
				<g>
					<path class="st7" d="M75.95,213.59c-0.2,0.06-0.59-0.76-1.21-1.65c-0.62-0.9-1.25-1.55-1.13-1.71c0.1-0.16,1.02,0.3,1.71,1.3
						C76.03,212.53,76.14,213.55,75.95,213.59z"/>
				</g>
				<g>
					<path class="st7" d="M83.85,227.49c0.1,0.17-0.6,0.79-1.57,1.4c-0.97,0.61-1.84,0.96-1.94,0.79c-0.1-0.17,0.6-0.79,1.57-1.4
						C82.88,227.68,83.75,227.32,83.85,227.49z"/>
				</g>
				<g>
					<path class="st7" d="M82.6,220.49c-0.18-0.07,0.02-1.05,0.46-2.18c0.44-1.13,0.94-1.99,1.12-1.92
						c0.18,0.07-0.02,1.05-0.46,2.18C83.29,219.7,82.79,220.56,82.6,220.49z"/>
				</g>
				<g>
					<path class="st7" d="M90.73,229.38c-0.14,0.13-1.1-0.72-1.93-2.04c-0.84-1.32-1.19-2.55-1.01-2.63
						c0.18-0.08,0.81,0.98,1.61,2.25C90.2,228.23,90.89,229.25,90.73,229.38z"/>
				</g>
				<g>
					<path class="st7" d="M90.2,215.5c0.19,0.03,0.18,1.17-0.03,2.54c-0.21,1.37-0.54,2.46-0.74,2.43
						c-0.19-0.03-0.18-1.17,0.03-2.54C89.67,216.56,90,215.47,90.2,215.5z"/>
				</g>
				<g>
					<path class="st7" d="M88.09,209.77c-0.02,0.19-1.17,0.24-2.53-0.08c-1.37-0.32-2.37-0.88-2.3-1.06
						c0.07-0.19,1.15,0.06,2.47,0.36C87.04,209.3,88.11,209.57,88.09,209.77z"/>
				</g>
				<g>
					<path class="st7" d="M69.92,211.39c0.2-0.01,0.39,0.81,0.43,1.82c0.04,1.01-0.09,1.84-0.28,1.85c-0.2,0.01-0.39-0.81-0.43-1.82
						C69.59,212.22,69.72,211.4,69.92,211.39z"/>
				</g>
				<g>
					<path class="st7" d="M78.44,200.57c0.13,0.14-0.32,0.78-1.02,1.42c-0.69,0.64-1.36,1.04-1.5,0.89
						c-0.13-0.15,0.32-0.78,1.02-1.42C77.64,200.83,78.31,200.43,78.44,200.57z"/>
				</g>
				<g>
					<path class="st7" d="M87.63,200.87c-0.19,0.03-0.55-1.19-0.79-2.72c-0.24-1.54-0.28-2.8-0.09-2.83
						c0.19-0.03,0.55,1.19,0.79,2.72C87.78,199.57,87.82,200.84,87.63,200.87z"/>
				</g>
				<g>
					<path class="st7" d="M55.91,215.49c-0.08,0.18-0.93-0.04-1.9-0.48c-0.97-0.44-1.69-0.95-1.61-1.13
						c0.08-0.18,0.93,0.04,1.9,0.48C55.28,214.81,56,215.31,55.91,215.49z"/>
				</g>
				<g>
					<path class="st7" d="M59.42,200.59c-0.03,0.19-0.94,0.21-2.03,0.04c-1.09-0.17-1.95-0.47-1.92-0.66
						c0.03-0.19,0.94-0.21,2.03-0.04C58.59,200.1,59.45,200.4,59.42,200.59z"/>
				</g>
				<g>
					<path class="st7" d="M67.19,195.32c0.14,0.14-0.46,0.93-1.32,1.76c-0.87,0.83-1.68,1.39-1.82,1.24
						c-0.14-0.14,0.46-0.93,1.32-1.76C66.24,195.74,67.06,195.18,67.19,195.32z"/>
				</g>
				<g>
					<path class="st7" d="M74.81,195.44c-0.18,0.07-0.73-0.92-1.21-2.22c-0.48-1.29-0.73-2.4-0.54-2.47
						c0.18-0.07,0.73,0.92,1.21,2.22C74.75,194.27,74.99,195.37,74.81,195.44z"/>
				</g>
				<g>
					<path class="st7" d="M83.22,194.61c-0.16,0.12-0.91-0.64-1.68-1.69c-0.77-1.05-1.27-1.99-1.11-2.11
						c0.16-0.12,0.91,0.64,1.68,1.69C82.89,193.54,83.38,194.49,83.22,194.61z"/>
				</g>
				<g>
					<path class="st7" d="M89.59,188.75c0.15,0.13-0.31,0.88-1.01,1.67c-0.71,0.79-1.4,1.33-1.54,1.2
						c-0.15-0.13,0.31-0.88,1.01-1.67C88.75,189.16,89.44,188.62,89.59,188.75z"/>
				</g>
				<g>
					<path class="st7" d="M96.12,189.88c0.16,0.12-0.18,0.81-0.74,1.54c-0.57,0.73-1.15,1.22-1.3,1.1
						c-0.16-0.12,0.18-0.81,0.74-1.54C95.38,190.25,95.96,189.76,96.12,189.88z"/>
				</g>
				<g>
					<path class="st7" d="M93.61,183.75c-0.2,0.03-0.48-0.87-0.64-2c-0.16-1.13-0.13-2.07,0.06-2.1c0.19-0.03,0.48,0.87,0.64,2
						C93.84,182.79,93.81,183.73,93.61,183.75z"/>
				</g>
				<g>
					<path class="st7" d="M100.28,183.25c-0.13,0.15-0.93-0.3-1.79-1.01c-0.86-0.71-1.46-1.41-1.34-1.56
						c0.12-0.15,0.93,0.3,1.79,1.01C99.81,182.4,100.41,183.1,100.28,183.25z"/>
				</g>
				<g>
					<path class="st7" d="M103.16,185.95c0.13,0.14-0.32,0.78-1.01,1.42c-0.69,0.64-1.36,1.04-1.5,0.9
						c-0.13-0.15,0.32-0.78,1.01-1.42C102.36,186.2,103.03,185.8,103.16,185.95z"/>
				</g>
				<g>
					<path class="st7" d="M102.98,178.22c-0.17,0.11-0.81-0.56-1.68-1.26c-0.87-0.71-1.66-1.19-1.59-1.38
						c0.06-0.18,1.07,0.04,2.04,0.83C102.71,177.18,103.14,178.12,102.98,178.22z"/>
				</g>
				<g>
					<path class="st7" d="M109.44,176.43c0.12,0.17-0.81,0.99-1.83,2.11c-1.03,1.11-1.78,2.1-1.95,2c-0.17-0.09,0.34-1.31,1.43-2.48
						C108.17,176.87,109.34,176.27,109.44,176.43z"/>
				</g>
				<g>
					<path class="st7" d="M112.77,181.78c0.11,0.16-0.68,0.89-1.77,1.62c-1.09,0.73-2.06,1.19-2.17,1.03
						c-0.11-0.16,0.68-0.89,1.77-1.62C111.69,182.08,112.66,181.62,112.77,181.78z"/>
				</g>
				<g>
					<path class="st7" d="M114.71,173.51c0.16,0.11-0.19,0.95-0.8,1.88c-0.61,0.93-1.23,1.59-1.4,1.49
						c-0.16-0.11,0.19-0.95,0.8-1.88C113.92,174.07,114.55,173.4,114.71,173.51z"/>
				</g>
				<g>
					<path class="st7" d="M116.32,171.02c-0.13,0.14-0.82-0.32-1.29-1.19c-0.48-0.87-0.5-1.69-0.32-1.73
						c0.2-0.05,0.51,0.62,0.94,1.39C116.07,170.26,116.47,170.88,116.32,171.02z"/>
				</g>
				<g>
					<path class="st7" d="M119.36,173.78c0.15,0.13-0.33,0.94-1.08,1.81c-0.75,0.87-1.47,1.48-1.62,1.35
						c-0.15-0.13,0.33-0.94,1.08-1.81C118.49,174.25,119.21,173.65,119.36,173.78z"/>
				</g>
				<g>
					<path class="st7" d="M119.92,167.84c-0.16,0.1-0.75-0.58-1.11-1.6c-0.36-1.02-0.32-1.92-0.13-1.94c0.2-0.03,0.47,0.76,0.8,1.71
						C119.81,166.95,120.09,167.74,119.92,167.84z"/>
				</g>
				<g>
					<path class="st7" d="M119.98,160.35c-0.11-0.16,0.36-0.66,1.05-1.1c0.69-0.44,1.33-0.67,1.44-0.51
						c0.11,0.16-0.36,0.66-1.05,1.1C120.73,160.29,120.09,160.52,119.98,160.35z"/>
				</g>
				<g>
					<path class="st7" d="M124.03,165.88c-0.17-0.1,0.28-1.17,1.01-2.38c0.73-1.21,1.45-2.11,1.62-2.01
						c0.17,0.1-0.28,1.16-1.01,2.38C124.93,165.08,124.2,165.98,124.03,165.88z"/>
				</g>
				<g>
					<path class="st7" d="M125.4,159.33c0.14,0.14-0.36,0.9-1.13,1.71c-0.77,0.81-1.51,1.35-1.65,1.22
						c-0.14-0.14,0.36-0.9,1.13-1.71C124.52,159.74,125.26,159.2,125.4,159.33z"/>
				</g>
				<g>
					<path class="st7" d="M127.59,156.1c-0.09,0.17-0.97-0.12-1.79-0.89c-0.82-0.76-1.18-1.62-1.02-1.72
						c0.17-0.11,0.75,0.51,1.5,1.2C127.03,155.39,127.69,155.92,127.59,156.1z"/>
				</g>
				<g>
					<path class="st7" d="M128.75,159.32c-0.19-0.02-0.23-0.9,0.27-1.82c0.49-0.93,1.23-1.39,1.36-1.25
						c0.14,0.15-0.31,0.77-0.73,1.58C129.21,158.63,128.95,159.35,128.75,159.32z"/>
				</g>
				<g>
					<path class="st7" d="M88.46,180.99c-0.19-0.05-0.12-0.94,0.16-2c0.28-1.05,0.66-1.86,0.85-1.81c0.19,0.05,0.12,0.94-0.16,1.99
						C89.03,180.23,88.65,181.04,88.46,180.99z"/>
				</g>
				<g>
					<path class="st7" d="M86.78,185.36c-0.15,0.13-0.98-0.54-1.87-1.51c-0.89-0.97-1.49-1.86-1.35-2c0.14-0.13,0.98,0.55,1.87,1.51
						C86.32,184.33,86.92,185.23,86.78,185.36z"/>
				</g>
				<g>
					<path class="st7" d="M79.5,184.07c0.17,0.1-0.06,0.77-0.51,1.5c-0.45,0.72-0.95,1.23-1.12,1.12c-0.17-0.1,0.06-0.77,0.51-1.5
						C78.83,184.46,79.33,183.96,79.5,184.07z"/>
				</g>
				<g>
					<path class="st7" d="M72.59,187.11c-0.05,0.19-1.03,0.08-2.11-0.42c-1.09-0.5-1.8-1.18-1.69-1.34
						c0.11-0.17,0.96,0.22,1.99,0.69C71.8,186.52,72.64,186.92,72.59,187.11z"/>
				</g>
				<g>
					<path class="st7" d="M76.1,181.12c-0.01,0.2-0.97,0.29-2.15,0.21c-1.17-0.08-2.11-0.31-2.1-0.5c0.01-0.2,0.97-0.29,2.15-0.21
						S76.11,180.92,76.1,181.12z"/>
				</g>
				<g>
					<path class="st7" d="M82.53,178.04c-0.1,0.18-1.25-0.26-2.72-0.61c-1.46-0.36-2.69-0.5-2.7-0.7c-0.01-0.19,1.3-0.37,2.86,0.01
						C81.55,177.11,82.63,177.88,82.53,178.04z"/>
				</g>
				<g>
					<path class="st7" d="M67.18,178.48c-0.01-0.2,1.4-0.42,3.06-0.9c1.67-0.47,2.99-1.02,3.08-0.84c0.1,0.16-1.13,1.03-2.89,1.52
						C68.68,178.76,67.18,178.67,67.18,178.48z"/>
				</g>
				<g>
					<path class="st7" d="M63.96,185.51c-0.17-0.09,0.14-1.05,0.71-2.14c0.57-1.09,1.17-1.9,1.34-1.81
						c0.17,0.09-0.14,1.05-0.71,2.14C64.74,184.79,64.14,185.6,63.96,185.51z"/>
				</g>
				<g>
					<path class="st7" d="M66.87,189c0.09,0.18-0.69,0.74-1.74,1.27c-1.05,0.52-1.97,0.8-2.06,0.63c-0.09-0.18,0.69-0.74,1.74-1.27
						C65.86,189.1,66.79,188.82,66.87,189z"/>
				</g>
				<g>
					<path class="st7" d="M56.07,187.86c0.12,0.16-0.67,0.97-1.68,1.92c-1.01,0.95-1.86,1.69-2.01,1.56
						c-0.15-0.13,0.49-1.1,1.52-2.08C54.94,188.29,55.96,187.71,56.07,187.86z"/>
				</g>
				<g>
					<path class="st7" d="M59.57,179.22c0.2,0.01,0.32,0.86,0.28,1.91c-0.04,1.05-0.23,1.9-0.43,1.89c-0.2-0.01-0.32-0.87-0.28-1.92
						C59.18,180.05,59.37,179.21,59.57,179.22z"/>
				</g>
				<g>
					<path class="st7" d="M56.07,183.01c-0.1,0.17-1.2-0.33-2.45-1.11c-0.83-0.52-1.52-1.03-1.85-1.36l0.23-0.27
						c0.12,0.22,0.16,0.36,0.11,0.41c-0.05,0.04-0.19-0.02-0.38-0.17l-0.85-0.64l1.08,0.37c0.44,0.15,1.2,0.54,2.03,1.06
						C55.24,182.07,56.17,182.84,56.07,183.01z"/>
				</g>
				<g>
					<path class="st7" d="M44.94,185.94c-0.14-0.14,0.44-0.91,1.29-1.72c0.85-0.81,1.65-1.35,1.78-1.2
						c0.14,0.14-0.44,0.91-1.29,1.72C45.88,185.55,45.08,186.09,44.94,185.94z"/>
				</g>
				<g>
					<path class="st7" d="M51.28,188.08c0.08,0.18-0.77,0.76-1.91,1.31c-1.14,0.54-2.13,0.84-2.22,0.67
						c-0.08-0.18,0.77-0.76,1.91-1.31C50.2,188.2,51.19,187.9,51.28,188.08z"/>
				</g>
				<g>
					<path class="st7" d="M44.19,195.85c-0.19,0.06-0.66-0.93-1.05-2.2c-0.39-1.27-0.55-2.35-0.37-2.41
						c0.19-0.06,0.66,0.93,1.05,2.2C44.22,194.72,44.38,195.79,44.19,195.85z"/>
				</g>
				<g>
					<path class="st7" d="M42.56,202.51c-0.15,0.13-0.83-0.42-1.52-1.22c-0.69-0.8-1.13-1.56-0.99-1.69
						c0.15-0.13,0.83,0.42,1.52,1.22C42.27,201.63,42.71,202.38,42.56,202.51z"/>
				</g>
				<g>
					<path class="st7" d="M48.98,204.63c0.17,0.09-0.11,0.98-0.64,1.99c-0.53,1.01-1.1,1.75-1.27,1.66
						c-0.17-0.09,0.11-0.98,0.64-1.99C48.23,205.28,48.8,204.54,48.98,204.63z"/>
				</g>
				<g>
					<path class="st7" d="M43.21,212.56c-0.19,0.05-0.58-0.79-0.87-1.88c-0.29-1.09-0.37-2.01-0.18-2.06
						c0.19-0.05,0.58,0.79,0.87,1.88C43.32,211.59,43.4,212.51,43.21,212.56z"/>
				</g>
				<g>
					<path class="st7" d="M40.9,212.04c0.13,0.15-0.45,0.88-1.31,1.65c-0.85,0.76-1.65,1.26-1.78,1.12
						c-0.13-0.15,0.45-0.88,1.31-1.65C39.97,212.39,40.77,211.89,40.9,212.04z"/>
				</g>
				<g>
					<path class="st7" d="M37.84,208.79c-0.18-0.08,0.04-1,0.33-2.12c0.3-1.12,0.56-2.03,0.76-2.01c0.19,0.02,0.24,1.02-0.07,2.19
						C38.55,208.02,38.02,208.86,37.84,208.79z"/>
				</g>
				<g>
					<path class="st7" d="M39.97,222.81c-0.09,0.17-1.05-0.16-1.97-0.97c-0.93-0.8-1.4-1.7-1.24-1.82c0.16-0.12,0.84,0.53,1.71,1.28
						C39.32,222.05,40.06,222.63,39.97,222.81z"/>
				</g>
				<g>
					<path class="st7" d="M48.86,219.99c0.14,0.13-0.46,1.02-1.36,1.99c-0.9,0.96-1.74,1.64-1.88,1.5
						c-0.14-0.13,0.46-1.02,1.36-1.99C47.87,220.53,48.71,219.86,48.86,219.99z"/>
				</g>
				<g>
					<path class="st7" d="M44.19,219.17c-0.12,0.16-0.78-0.14-1.56-0.54c-0.77-0.4-1.4-0.77-1.34-0.96
						c0.06-0.19,0.84-0.11,1.67,0.32C43.8,218.43,44.31,219.02,44.19,219.17z"/>
				</g>
				<g>
					<path class="st7" d="M49.62,211.24c0.17,0.1-0.13,0.9-0.66,1.79c-0.53,0.88-1.1,1.52-1.27,1.42c-0.17-0.1,0.13-0.9,0.66-1.79
						C48.88,211.78,49.45,211.14,49.62,211.24z"/>
				</g>
				<g>
					<path class="st7" d="M83.87,203.06c0.13,0.15-0.48,0.85-1.34,1.57c-0.87,0.72-1.67,1.17-1.8,1.02
						c-0.13-0.15,0.48-0.85,1.34-1.57C82.94,203.37,83.74,202.91,83.87,203.06z"/>
				</g>
			</g>
		</g>
		<g>
			<g>
				<path class="st1" d="M159.32,320.09c-0.16,0-0.33,0.01-0.49,0.01c-0.24,0.01-0.24,0.36,0,0.37c0.16,0,0.33,0.01,0.49,0.01
					C159.58,320.49,159.58,320.08,159.32,320.09L159.32,320.09z"/>
			</g>
		</g>
		<rect x="43.03" y="379.5" class="st11" width="186.59" height="37.61"/>
		<text transform="matrix(0.9974 0 0 1 48.6261 386.7435)" class="st39"><tspan x="0" y="0" class="st3 st40 st41">Lorem ipsum dolor sit amet, con</tspan><tspan x="172.15" y="0" class="st3 st40 st41">-</tspan><tspan x="23.19" y="19.52" class="st3 st40 st41">sectetuer adipiscing elit.</tspan></text>
		<g>
			<path class="st3" d="M114.08,441.46c0,0.96-0.78,1.74-1.74,1.74s-1.74-0.78-1.74-1.74c0-0.96,0.78-1.74,1.74-1.74
				S114.08,440.5,114.08,441.46z"/>
			<path class="st42" d="M135.54,441.46c0,0.96-0.78,1.74-1.74,1.74c-0.96,0-1.74-0.78-1.74-1.74c0-0.96,0.78-1.74,1.74-1.74
				C134.77,439.73,135.54,440.5,135.54,441.46z"/>
			<path class="st42" d="M157.01,441.46c0,0.96-0.78,1.74-1.74,1.74c-0.96,0-1.74-0.78-1.74-1.74c0-0.96,0.78-1.74,1.74-1.74
				C156.23,439.73,157.01,440.5,157.01,441.46z"/>
		</g>
		<g class="st43">
			<g>
				<path class="st7" d="M221.47,429.16c0.8-0.69,2.11-1.2,3.02-1.88c1.49-1.1,2.79-2.42,3.99-3.83c2.33-2.73,4.3-5.63,4.46-9.31
					c0.1-2.36-2.24-4.92-4.69-4.69c-3.66,0.35-6.42,2.25-9.08,4.68c-1.14,1.04-2.24,2.23-3.18,3.45c-0.51,0.66-0.98,1.35-1.41,2.07
					c-0.29,0.49-0.54,1.46-0.8,1.8c-1.8,2.32-2.26,5.43,0,7.69C215.99,431.37,219.23,431.08,221.47,429.16L221.47,429.16z"/>
			</g>
		</g>
		<text transform="matrix(0.9974 0 0 1 84.1823 360.3411)" class="st3 st44 st45">Lorem Ipsum</text>
		<text transform="matrix(0.9974 0 0 1 112.11 61.8509)" class="st46 st44 st47">Lorem Ipsum</text>
		<g>
			<g>
				<path class="st48" d="M228.03,369.45c1.19,0,1.19-1.85,0-1.85C226.84,367.6,226.83,369.45,228.03,369.45L228.03,369.45z"/>
			</g>
		</g>
		<g>
			<g>
				<path class="st48" d="M45.54,390.72c-0.02-0.12-0.05-0.25-0.07-0.37c-0.03-0.18-0.24-0.33-0.42-0.32
					c-0.18,0.01-0.38,0.13-0.42,0.32c-0.02,0.12-0.05,0.25-0.07,0.37c-0.03,0.18-0.01,0.36,0.13,0.49c0.1,0.09,0.22,0.15,0.36,0.15
					c0.13,0,0.26-0.06,0.36-0.15C45.54,391.08,45.57,390.9,45.54,390.72L45.54,390.72z"/>
			</g>
		</g>
		<g>
			<g>
				<path class="st48" d="M32.9,362.41c0.24,0,0.49-0.1,0.66-0.27c0.16-0.16,0.29-0.43,0.27-0.66c-0.01-0.24-0.09-0.49-0.27-0.66
					c-0.18-0.17-0.41-0.27-0.66-0.27c-0.24,0-0.49,0.1-0.66,0.27c-0.16,0.16-0.29,0.43-0.27,0.66c0.01,0.24,0.09,0.49,0.27,0.66
					C32.42,362.3,32.65,362.41,32.9,362.41L32.9,362.41z"/>
			</g>
		</g>
		<g>
			<g>
				<path class="st48" d="M63.86,348.74c-0.13,0-0.26,0.01-0.39,0.01c-0.3,0.01-0.59,0.26-0.57,0.57c0.01,0.32,0.25,0.56,0.57,0.57
					c0.13,0,0.26,0.01,0.39,0.01c0.31,0.01,0.6-0.28,0.59-0.59C64.43,349.01,64.19,348.73,63.86,348.74L63.86,348.74z"/>
			</g>
		</g>
		<g>
			<g>
				<path class="st48" d="M23.53,388.11c0-0.07,0-0.13-0.01-0.2c0-0.09,0-0.19-0.03-0.27c-0.06-0.16-0.2-0.3-0.39-0.29
					c-0.19,0.01-0.32,0.12-0.39,0.29c-0.03,0.08-0.03,0.18-0.03,0.27c0,0.07,0,0.13-0.01,0.2c-0.01,0.22,0.2,0.43,0.42,0.42
					C23.33,388.52,23.54,388.35,23.53,388.11L23.53,388.11z"/>
			</g>
		</g>
		<g>
			<g>
				<path class="st48" d="M36.43,383.81c0.02,0,0.02-0.03,0-0.03C36.41,383.79,36.41,383.81,36.43,383.81L36.43,383.81z"/>
			</g>
		</g>
		<g>
			<g>
				<path class="st48" d="M34.72,384.59c0.01,0.09,0.01,0.17,0.02,0.26c0.01,0.13,0.04,0.24,0.12,0.35
					c0.05,0.06,0.11,0.11,0.18,0.16c0.11,0.08,0.33,0.08,0.44,0c0.05-0.03,0.1-0.07,0.14-0.11c0.11-0.11,0.15-0.25,0.16-0.4
					c0.01-0.09,0.01-0.17,0.02-0.26c0.01-0.13-0.07-0.29-0.16-0.38c-0.09-0.09-0.25-0.16-0.38-0.16
					C34.98,384.06,34.69,384.28,34.72,384.59L34.72,384.59z"/>
			</g>
		</g>
		<g>
			<g>
				<path class="st48" d="M47.79,421.59c0.23,0,0.23-0.35,0-0.35C47.57,421.24,47.57,421.59,47.79,421.59L47.79,421.59z"/>
			</g>
		</g>
		<g>
			<g>
				<path class="st48" d="M224.89,388.78c0.86,0,0.86-1.34,0-1.34C224.03,387.44,224.03,388.78,224.89,388.78L224.89,388.78z"/>
			</g>
		</g>
		<g>
			<g>
				<path class="st48" d="M237.43,383.98c0.23,0,0.23-0.35,0-0.35C237.21,383.63,237.21,383.98,237.43,383.98L237.43,383.98z"/>
			</g>
		</g>
		<g>
			<g>
				<path class="st48" d="M242.53,389.17c0.35,0,0.35-0.54,0-0.54C242.18,388.63,242.18,389.17,242.53,389.17L242.53,389.17z"/>
			</g>
		</g>
		<g>
			<g>
				<path class="st49" d="M209.35,62"/>
			</g>
		</g>
		<g>
			<g>
				<path class="st1" d="M30.79,154.1c-0.14-0.12-0.28-0.25-0.46-0.33c-0.19-0.09-0.36-0.14-0.58-0.11
					c-0.19,0.03-0.38,0.1-0.52,0.25c-0.11,0.12-0.18,0.25-0.23,0.4c-0.08,0.24-0.01,0.48,0.09,0.7c0.08,0.17,0.21,0.31,0.33,0.46
					c0.15,0.18,0.45,0.28,0.68,0.28c0.24,0,0.52-0.1,0.68-0.28c0.17-0.18,0.29-0.42,0.28-0.68
					C31.07,154.53,30.99,154.26,30.79,154.1L30.79,154.1z"/>
			</g>
		</g>
		<g>
			<g>
				<path class="st1" d="M29.78,137.49c-0.2,0-0.4,0-0.6,0c-0.31,0-0.31,0.49,0,0.49c0.2,0,0.4,0,0.6,0
					C30.1,137.99,30.1,137.49,29.78,137.49L29.78,137.49z"/>
			</g>
		</g>
		<g>
			<g>
				<path class="st1" d="M47.08,157.97c0.69,0,0.69-1.08,0-1.08C46.39,156.89,46.39,157.97,47.08,157.97L47.08,157.97z"/>
			</g>
		</g>
		<g>
			<g>
				<path class="st1" d="M22.03,178.01c-0.2-0.02-0.4-0.04-0.6-0.07c-0.19-0.02-0.37,0.18-0.37,0.37c0.01,0.18,0.16,0.39,0.37,0.37
					c0.2-0.02,0.4-0.04,0.6-0.07c0.16-0.02,0.3-0.13,0.3-0.3C22.33,178.13,22.19,178.03,22.03,178.01L22.03,178.01z"/>
			</g>
		</g>
		<g>
			<g>
				<path class="st1" d="M216.51,207.59c-0.12-0.01-0.25-0.02-0.37-0.04c-0.91-0.09-0.62,1.61,0.3,1.09
					c0.09-0.05,0.18-0.1,0.28-0.16c0.26-0.15,0.26-0.55,0-0.7c-0.09-0.05-0.18-0.1-0.28-0.16c-0.91-0.52-1.21,1.18-0.3,1.09
					c0.12-0.01,0.25-0.02,0.37-0.04C217.22,208.62,217.22,207.66,216.51,207.59L216.51,207.59z"/>
			</g>
		</g>
		<g>
			<g>
				<path class="st1" d="M226.73,232.37c-0.04-0.03-0.07-0.05-0.11-0.08c-0.06-0.04-0.05-0.04,0.03,0.01
					c0.09,0.32,0.17,0.65,0.26,0.97c0-0.01,0-0.03,0.01-0.04c0.08-0.49-0.05-1.07-0.54-1.32c-0.15-0.08-0.3-0.15-0.46-0.22
					c-0.37-0.16-0.72-0.09-1.07,0.08c-0.47,0.22-0.57,0.78-0.5,1.23c0.08,0.48,0.47,0.71,0.85,0.92c0.46,0.25,1.04,0.19,1.41-0.18
					c0.01-0.01,0.02-0.02,0.04-0.04c-0.23,0.1-0.47,0.19-0.7,0.29c-0.23-0.02,0.04,0.05,0.07,0.06c0.43,0.15,0.92-0.14,1.09-0.53
					C227.3,233.07,227.11,232.65,226.73,232.37L226.73,232.37z"/>
			</g>
		</g>
		<g>
			<g>
				<path class="st1" d="M206.37,237.45c0.1,0,0.1-0.16,0-0.16C206.27,237.29,206.27,237.45,206.37,237.45L206.37,237.45z"/>
			</g>
		</g>
		<g>
			<g>
				<path class="st1" d="M207.57,237.21c0.56,0,0.56-0.87,0-0.87C207,236.34,207,237.21,207.57,237.21L207.57,237.21z"/>
			</g>
		</g>
		<g>
			<g>
				<path class="st1" d="M240.38,203.92c0.71,0,0.71-1.11,0-1.11C239.67,202.81,239.67,203.92,240.38,203.92L240.38,203.92z"/>
			</g>
		</g>
		<g>
			<g>
				<path class="st1" d="M112.11,249.08c0.48,0,0.48-0.75,0-0.75C111.63,248.33,111.63,249.08,112.11,249.08L112.11,249.08z"/>
			</g>
		</g>
		<g>
			<g>
				<g>
					<path class="st1" d="M41.02,68.61c-0.09,0-0.19-0.03-0.26-0.1l-6.19-5.61c-0.08-0.07-0.13-0.18-0.13-0.29
						c0-0.11,0.05-0.21,0.13-0.29l6.33-5.61c0.16-0.14,0.4-0.13,0.54,0.03c0.14,0.16,0.13,0.4-0.03,0.54l-6.01,5.32l5.87,5.32
						c0.16,0.14,0.17,0.39,0.03,0.54C41.23,68.57,41.12,68.61,41.02,68.61z"/>
				</g>
			</g>
			<g>
				<g>
					<path class="st1" d="M228.03,59.2h-11.45c-0.21,0-0.39-0.17-0.39-0.39c0-0.21,0.17-0.39,0.39-0.39h11.45
						c0.21,0,0.39,0.17,0.39,0.39C228.41,59.02,228.24,59.2,228.03,59.2z"/>
				</g>
				<g>
					<path class="st1" d="M228.03,62.62h-11.45c-0.21,0-0.39-0.17-0.39-0.39c0-0.21,0.17-0.39,0.39-0.39h11.45
						c0.21,0,0.39,0.17,0.39,0.39C228.41,62.45,228.24,62.62,228.03,62.62z"/>
				</g>
				<g>
					<path class="st1" d="M228.03,66.05h-11.45c-0.21,0-0.39-0.17-0.39-0.39c0-0.21,0.17-0.39,0.39-0.39h11.45
						c0.21,0,0.39,0.17,0.39,0.39C228.41,65.88,228.24,66.05,228.03,66.05z"/>
				</g>
			</g>
			<g>
				<g class="st50">
					<g>
						<g>
							<path class="st1" d="M207.46,31.18c0.35,0,0.63,0.28,0.63,0.63c0,0.35-0.28,0.63-0.63,0.63c-0.35,0-0.63-0.28-0.63-0.63
								C206.82,31.47,207.11,31.18,207.46,31.18z"/>
							<path class="st1" d="M208.97,30.29c-0.01-0.01-0.02-0.02-0.03-0.03l-0.03-0.03c0-0.01-0.01-0.01-0.02-0.01
								c-0.82-0.74-2.07-0.71-2.85,0.07l-0.09,0.09l-0.13,0.13c-0.15,0.15-0.15,0.41,0,0.56c0.16,0.16,0.41,0.16,0.56,0l0.22-0.22
								c0.5-0.5,1.31-0.5,1.8,0l0.16,0.15c0.16,0.15,0.4,0.15,0.56,0c0.07-0.07,0.12-0.17,0.12-0.28c0-0.11-0.04-0.2-0.11-0.28
								L208.97,30.29z"/>
							<path class="st1" d="M210.05,29.51l-0.13-0.13c0,0,0,0,0,0l-0.1-0.1c-0.02-0.02-0.04-0.03-0.06-0.05
								c-1.33-1.17-3.37-1.14-4.66,0.11c-0.01,0.01-0.01,0.01-0.02,0.02l-0.24,0.24c-0.14,0.14-0.14,0.37,0,0.51
								c0.14,0.14,0.37,0.14,0.51,0l0.24-0.24c0,0,0,0,0-0.01c1.05-1.01,2.7-1.01,3.76-0.02l0.19,0.19c0.14,0.14,0.37,0.14,0.51,0
								C210.19,29.88,210.19,29.65,210.05,29.51z"/>
						</g>
					</g>
				</g>
				<g class="st29">
					<path class="st1" d="M228.92,32.94c-0.28,0-0.5-0.2-0.5-0.46l-0.01-3.58c0-0.25,0.22-0.46,0.49-0.46l8.31-0.01
						c0.27,0,0.49,0.21,0.5,0.46l0,0.74l0.64,0l0.01,2.11l-0.64,0l0,0.73c0,0.25-0.22,0.46-0.5,0.46L228.92,32.94z M237.37,28.75
						l-8.61,0.01l0,3.85l8.61-0.01L237.37,28.75z M229.1,29.12l6.26-0.01l0.01,3.13l-6.26,0.01L229.1,29.12z"/>
				</g>
			</g>
		</g>
		<g class="st51">
			<g>
				
					<linearGradient id="SVGID_00000131365622541030468530000001648845480468905102_" gradientUnits="userSpaceOnUse" x1="166.7148" y1="260.3162" x2="198.1154" y2="260.3162">
					<stop  offset="0.05" style="stop-color:#6BC1CD"/>
					<stop  offset="1" style="stop-color:#A8EBA4"/>
				</linearGradient>
				<path style="fill:url(#SVGID_00000131365622541030468530000001648845480468905102_);" d="M164.44,248.86
					c4.11,5.61,10.71,9.97,16.02,14.46c4.9,4.14,10.35,10.63,16.6,12.4c2.9,0.82,5.13-2.4,3.78-4.92
					c-2.91-5.45-10.11-9.24-14.92-12.93c-5.5-4.22-11.31-10.04-17.64-12.85C166.05,244.02,162.58,246.32,164.44,248.86
					L164.44,248.86z"/>
			</g>
		</g>
		<g class="st53">
			
				<linearGradient id="SVGID_00000122688282765513982540000006848169595701707179_" gradientUnits="userSpaceOnUse" x1="121.0726" y1="296.8554" x2="133.4803" y2="296.8554">
				<stop  offset="0" style="stop-color:#E58F7E"/>
				<stop  offset="0.1391" style="stop-color:#E4857E"/>
				<stop  offset="0.6977" style="stop-color:#E0637F"/>
				<stop  offset="1" style="stop-color:#DE567F"/>
			</linearGradient>
			<path style="fill:url(#SVGID_00000122688282765513982540000006848169595701707179_);" d="M124.56,291.1
				c4.05-1.8,9.35,2.05,8.89,6.45c-0.45,4.4-6.43,7.09-10.02,4.51c-3.59-2.58-2.95-9.1,1.08-10.94"/>
		</g>
	</g>
</g>
</svg>
