<svg id="Layer_1" data-name="Layer 1" xmlns="http://www.w3.org/2000/svg" xmlns:xlink="http://www.w3.org/1999/xlink" width="34.2222" height="34.2222" viewBox="0 0 34.2222 34.2222"><defs><style>.cls-1{fill:url(#linear-gradient);}.cls-2{fill:url(#linear-gradient-2);}</style><linearGradient id="linear-gradient" x1="9.6315" y1="17.1113" x2="24.5912" y2="17.1113" gradientUnits="userSpaceOnUse"><stop offset="0" stop-color="#e1aa06"/><stop offset="1" stop-color="#de9312"/></linearGradient><linearGradient id="linear-gradient-2" x1="-0.0202" y1="17.1111" x2="34.2424" y2="17.1111" xlink:href="#linear-gradient"/></defs><path class="cls-1" d="M24.5912,12.4727a6.3848,6.3848,0,0,1-1.7669.4844,3.05,3.05,0,0,0,1.3491-1.6951,6.1275,6.1275,0,0,1-1.9449.7422,3.0667,3.0667,0,0,0-5.3049,2.0972,3.1556,3.1556,0,0,0,.071.6994,8.681,8.681,0,0,1-6.3215-3.2078,3.0674,3.0674,0,0,0,.9427,4.0989,3.0266,3.0266,0,0,1-1.3858-.3776v.0336a3.0807,3.0807,0,0,0,2.4572,3.0134,3.06,3.06,0,0,1-.8043.1009,2.6989,2.6989,0,0,1-.58-.0523,3.0954,3.0954,0,0,0,2.8657,2.1365,6.1634,6.1634,0,0,1-3.8027,1.308,5.7019,5.7019,0,0,1-.7341-.0421,8.7293,8.7293,0,0,0,13.434-7.3509c0-.1355-.0046-.2664-.0114-.3964a6.1125,6.1125,0,0,0,1.5371-1.5923Zm0,0"/><path class="cls-2" d="M17.1111,34.2428A17.1317,17.1317,0,1,1,34.2424,17.1115,17.15,17.15,0,0,1,17.1111,34.2428Zm0-32.8388a15.7071,15.7071,0,1,0,15.707,15.7075A15.7249,15.7249,0,0,0,17.1111,1.404Z"/></svg>